# xmcd
#
# Track frame offsets:
#	150
#	18787
#	32522
#	55910
#	73755
#	91942
#	104770
#	118407
#	134497
#	152375
#	169830
#	182925
#	200912
#	214622
#
# Disc length: 3129 seconds
#
# Revision: 0
# Processed by: cddbd v1.4b42PL1 Copyright (c) Steve Scherf et al.
# Submitted via: audiograbber 1.80
#
DISCID=cb0c370e
DTITLE=Katerina Brozova - Zpivam si
DYEAR=1900
DGENRE=
TTITLE0=O bejby, bejby
TTITLE1=Muze se ti zdat (Aqua de Beber)
TTITLE2=Ten pan v bilem
TTITLE3=Dej si rict
TTITLE4=Nahlym laskam
TTITLE5=Jsem tajne vasniva
TTITLE6=V tvem usmevu je stin (Shadows Of Your Smile)
TTITLE7=On je fajn
TTITLE8=Bliz a bliz
TTITLE9=Chci je vyznani
TTITLE10=Svita
TTITLE11=Uz me nepohladis
TTITLE12=Samba (GIrl Of Ipanema)
TTITLE13=Zahod litost
EXTD=
EXTT0=
EXTT1=
EXTT2=
EXTT3=
EXTT4=
EXTT5=
EXTT6=
EXTT7=
EXTT8=
EXTT9=
EXTT10=
EXTT11=
EXTT12=
EXTT13=
PLAYORDER=
